<mxfile host="app.diagrams.net" modified="2024-05-27T13:58:55.645Z" agent="Mozilla/5.0 (Windows NT 10.0; Win64; x64) AppleWebKit/537.36 (KHTML, like Gecko) Chrome/125.0.0.0 Safari/537.36 Edg/125.0.0.0" etag="Ac3oaq3rM2Shi8MD4w85" version="24.4.8" type="github">
  <diagram name="第 1 页" id="RIavcO6uoZUjZnijJ_pN">
    <mxGraphModel dx="2830" dy="1990" grid="1" gridSize="10" guides="1" tooltips="1" connect="1" arrows="1" fold="1" page="1" pageScale="1" pageWidth="2339" pageHeight="3300" math="0" shadow="0">
      <root>
        <mxCell id="0" />
        <mxCell id="1" parent="0" />
        <mxCell id="wJQzVaT3mwu58rgRfh5--1" value="飞机场" style="whiteSpace=wrap;html=1;align=center;" vertex="1" parent="1">
          <mxGeometry x="340" y="130" width="100" height="40" as="geometry" />
        </mxCell>
        <mxCell id="wJQzVaT3mwu58rgRfh5--2" value="飞机场编号" style="ellipse;whiteSpace=wrap;html=1;align=center;fontStyle=4;" vertex="1" parent="1">
          <mxGeometry x="340" y="40" width="100" height="40" as="geometry" />
        </mxCell>
        <mxCell id="wJQzVaT3mwu58rgRfh5--4" value="名称" style="ellipse;whiteSpace=wrap;html=1;align=center;" vertex="1" parent="1">
          <mxGeometry x="340" y="220" width="100" height="40" as="geometry" />
        </mxCell>
        <mxCell id="wJQzVaT3mwu58rgRfh5--6" value="飞机" style="whiteSpace=wrap;html=1;align=center;" vertex="1" parent="1">
          <mxGeometry x="520" y="130" width="100" height="40" as="geometry" />
        </mxCell>
        <mxCell id="wJQzVaT3mwu58rgRfh5--7" value="航空公司" style="whiteSpace=wrap;html=1;align=center;" vertex="1" parent="1">
          <mxGeometry x="820" y="130" width="100" height="40" as="geometry" />
        </mxCell>
        <mxCell id="wJQzVaT3mwu58rgRfh5--9" value="飞机编号" style="ellipse;whiteSpace=wrap;html=1;align=center;fontStyle=4;" vertex="1" parent="1">
          <mxGeometry x="520" y="40" width="100" height="40" as="geometry" />
        </mxCell>
        <mxCell id="wJQzVaT3mwu58rgRfh5--11" value="航空公司编号" style="ellipse;whiteSpace=wrap;html=1;align=center;fontStyle=4;" vertex="1" parent="1">
          <mxGeometry x="820" y="20" width="100" height="40" as="geometry" />
        </mxCell>
        <mxCell id="wJQzVaT3mwu58rgRfh5--12" value="机型" style="ellipse;whiteSpace=wrap;html=1;align=center;" vertex="1" parent="1">
          <mxGeometry x="450" y="220" width="100" height="40" as="geometry" />
        </mxCell>
        <mxCell id="wJQzVaT3mwu58rgRfh5--14" value="航空公司编号" style="ellipse;whiteSpace=wrap;html=1;align=center;" vertex="1" parent="1">
          <mxGeometry x="520" y="270" width="100" height="40" as="geometry" />
        </mxCell>
        <mxCell id="wJQzVaT3mwu58rgRfh5--17" value="累计飞行小时" style="ellipse;whiteSpace=wrap;html=1;align=center;" vertex="1" parent="1">
          <mxGeometry x="590" y="210" width="100" height="40" as="geometry" />
        </mxCell>
        <mxCell id="wJQzVaT3mwu58rgRfh5--19" value="属于" style="shape=rhombus;perimeter=rhombusPerimeter;whiteSpace=wrap;html=1;align=center;" vertex="1" parent="1">
          <mxGeometry x="660" y="120" width="120" height="60" as="geometry" />
        </mxCell>
        <mxCell id="wJQzVaT3mwu58rgRfh5--20" value="" style="endArrow=none;html=1;rounded=0;dashed=1;dashPattern=1 2;fontSize=12;startSize=8;endSize=8;curved=1;exitX=1;exitY=0.5;exitDx=0;exitDy=0;entryX=0;entryY=0.5;entryDx=0;entryDy=0;" edge="1" parent="1" source="wJQzVaT3mwu58rgRfh5--6" target="wJQzVaT3mwu58rgRfh5--19">
          <mxGeometry relative="1" as="geometry">
            <mxPoint x="620" y="180" as="sourcePoint" />
            <mxPoint x="780" y="180" as="targetPoint" />
          </mxGeometry>
        </mxCell>
        <mxCell id="wJQzVaT3mwu58rgRfh5--21" value="1" style="resizable=0;html=1;whiteSpace=wrap;align=right;verticalAlign=bottom;" connectable="0" vertex="1" parent="wJQzVaT3mwu58rgRfh5--20">
          <mxGeometry x="1" relative="1" as="geometry">
            <mxPoint x="-10" as="offset" />
          </mxGeometry>
        </mxCell>
        <mxCell id="wJQzVaT3mwu58rgRfh5--22" value="" style="endArrow=none;html=1;rounded=0;dashed=1;dashPattern=1 2;fontSize=12;startSize=8;endSize=8;curved=1;exitX=0;exitY=0.5;exitDx=0;exitDy=0;entryX=1;entryY=0.5;entryDx=0;entryDy=0;" edge="1" parent="1" source="wJQzVaT3mwu58rgRfh5--7" target="wJQzVaT3mwu58rgRfh5--19">
          <mxGeometry relative="1" as="geometry">
            <mxPoint x="620" y="180" as="sourcePoint" />
            <mxPoint x="780" y="180" as="targetPoint" />
          </mxGeometry>
        </mxCell>
        <mxCell id="wJQzVaT3mwu58rgRfh5--23" value="N" style="resizable=0;html=1;whiteSpace=wrap;align=right;verticalAlign=bottom;" connectable="0" vertex="1" parent="wJQzVaT3mwu58rgRfh5--22">
          <mxGeometry x="1" relative="1" as="geometry">
            <mxPoint x="20" as="offset" />
          </mxGeometry>
        </mxCell>
        <mxCell id="wJQzVaT3mwu58rgRfh5--24" value="在该图中，实线表示 强制参加，虚线表示非强制参加" style="text;html=1;align=center;verticalAlign=middle;whiteSpace=wrap;rounded=0;fontSize=16;" vertex="1" parent="1">
          <mxGeometry x="70" y="40" width="200" height="50" as="geometry" />
        </mxCell>
        <mxCell id="wJQzVaT3mwu58rgRfh5--32" style="endArrow=none;rounded=0;orthogonalLoop=1;jettySize=auto;html=1;exitX=0.5;exitY=0;exitDx=0;exitDy=0;entryX=0.5;entryY=1;entryDx=0;entryDy=0;fontSize=12;startSize=8;endSize=8;" edge="1" parent="1" source="wJQzVaT3mwu58rgRfh5--25" target="wJQzVaT3mwu58rgRfh5--27">
          <mxGeometry relative="1" as="geometry" />
        </mxCell>
        <mxCell id="wJQzVaT3mwu58rgRfh5--52" style="endArrow=none;rounded=0;orthogonalLoop=1;jettySize=auto;html=1;exitX=0.5;exitY=1;exitDx=0;exitDy=0;entryX=1;entryY=0.5;entryDx=0;entryDy=0;fontSize=12;startSize=8;endSize=8;" edge="1" parent="1" source="wJQzVaT3mwu58rgRfh5--25" target="wJQzVaT3mwu58rgRfh5--48">
          <mxGeometry relative="1" as="geometry" />
        </mxCell>
        <mxCell id="wJQzVaT3mwu58rgRfh5--25" value="航空公司职工" style="whiteSpace=wrap;html=1;align=center;" vertex="1" parent="1">
          <mxGeometry x="1110" y="160" width="100" height="40" as="geometry" />
        </mxCell>
        <mxCell id="wJQzVaT3mwu58rgRfh5--26" value="职工身份证号" style="ellipse;whiteSpace=wrap;html=1;align=center;fontStyle=4;" vertex="1" parent="1">
          <mxGeometry x="1010" y="60" width="105" height="40" as="geometry" />
        </mxCell>
        <mxCell id="wJQzVaT3mwu58rgRfh5--27" value="姓名" style="ellipse;whiteSpace=wrap;html=1;align=center;" vertex="1" parent="1">
          <mxGeometry x="1125" y="80" width="70" height="40" as="geometry" />
        </mxCell>
        <mxCell id="wJQzVaT3mwu58rgRfh5--28" value="就职航空&lt;div&gt;公司编号&lt;/div&gt;" style="ellipse;whiteSpace=wrap;html=1;align=center;" vertex="1" parent="1">
          <mxGeometry x="1230" y="100" width="90" height="40" as="geometry" />
        </mxCell>
        <mxCell id="wJQzVaT3mwu58rgRfh5--29" value="聘用类型" style="ellipse;whiteSpace=wrap;html=1;align=center;" vertex="1" parent="1">
          <mxGeometry x="960" y="330" width="80" height="40" as="geometry" />
        </mxCell>
        <mxCell id="wJQzVaT3mwu58rgRfh5--44" style="endArrow=none;html=1;rounded=0;exitX=0;exitY=0.25;exitDx=0;exitDy=0;entryX=0.5;entryY=1;entryDx=0;entryDy=0;fontSize=12;startSize=8;endSize=8;" edge="1" parent="1" source="wJQzVaT3mwu58rgRfh5--30" target="wJQzVaT3mwu58rgRfh5--40">
          <mxGeometry relative="1" as="geometry" />
        </mxCell>
        <mxCell id="wJQzVaT3mwu58rgRfh5--45" style="endArrow=none;rounded=0;orthogonalLoop=1;jettySize=auto;html=1;exitX=0.5;exitY=1;exitDx=0;exitDy=0;entryX=0.5;entryY=0;entryDx=0;entryDy=0;fontSize=12;startSize=8;endSize=8;" edge="1" parent="1" source="wJQzVaT3mwu58rgRfh5--30" target="wJQzVaT3mwu58rgRfh5--29">
          <mxGeometry relative="1" as="geometry" />
        </mxCell>
        <mxCell id="wJQzVaT3mwu58rgRfh5--30" value="聘用合同" style="shape=ext;margin=3;double=1;whiteSpace=wrap;html=1;align=center;" vertex="1" parent="1">
          <mxGeometry x="955" y="260" width="90" height="40" as="geometry" />
        </mxCell>
        <mxCell id="wJQzVaT3mwu58rgRfh5--31" style="endArrow=none;rounded=0;orthogonalLoop=1;jettySize=auto;html=1;entryX=0.623;entryY=0.982;entryDx=0;entryDy=0;entryPerimeter=0;fontSize=12;startSize=8;endSize=8;exitX=0.25;exitY=0;exitDx=0;exitDy=0;" edge="1" parent="1" source="wJQzVaT3mwu58rgRfh5--25" target="wJQzVaT3mwu58rgRfh5--26">
          <mxGeometry relative="1" as="geometry">
            <mxPoint x="1046" y="130" as="sourcePoint" />
          </mxGeometry>
        </mxCell>
        <mxCell id="wJQzVaT3mwu58rgRfh5--33" style="endArrow=none;rounded=0;orthogonalLoop=1;jettySize=auto;html=1;exitX=0.75;exitY=0;exitDx=0;exitDy=0;fontSize=12;startSize=8;endSize=8;entryX=0;entryY=0.5;entryDx=0;entryDy=0;" edge="1" parent="1" source="wJQzVaT3mwu58rgRfh5--25" target="wJQzVaT3mwu58rgRfh5--28">
          <mxGeometry relative="1" as="geometry">
            <mxPoint x="1231" y="127" as="targetPoint" />
          </mxGeometry>
        </mxCell>
        <mxCell id="wJQzVaT3mwu58rgRfh5--34" style="edgeStyle=none;curved=1;rounded=0;orthogonalLoop=1;jettySize=auto;html=1;exitX=0.5;exitY=0;exitDx=0;exitDy=0;fontSize=12;startSize=8;endSize=8;" edge="1" parent="1" source="wJQzVaT3mwu58rgRfh5--30" target="wJQzVaT3mwu58rgRfh5--30">
          <mxGeometry relative="1" as="geometry" />
        </mxCell>
        <mxCell id="wJQzVaT3mwu58rgRfh5--35" value="聘用" style="shape=rhombus;double=1;perimeter=rhombusPerimeter;whiteSpace=wrap;html=1;align=center;" vertex="1" parent="1">
          <mxGeometry x="940" y="160" width="120" height="60" as="geometry" />
        </mxCell>
        <mxCell id="wJQzVaT3mwu58rgRfh5--36" value="" style="endArrow=none;html=1;rounded=0;fontSize=12;startSize=8;endSize=8;curved=1;exitX=0.5;exitY=1;exitDx=0;exitDy=0;entryX=0.5;entryY=0;entryDx=0;entryDy=0;" edge="1" parent="1" source="wJQzVaT3mwu58rgRfh5--35" target="wJQzVaT3mwu58rgRfh5--30">
          <mxGeometry relative="1" as="geometry">
            <mxPoint x="900" y="250" as="sourcePoint" />
            <mxPoint x="1060" y="250" as="targetPoint" />
          </mxGeometry>
        </mxCell>
        <mxCell id="wJQzVaT3mwu58rgRfh5--37" value="1" style="resizable=0;html=1;whiteSpace=wrap;align=right;verticalAlign=bottom;" connectable="0" vertex="1" parent="wJQzVaT3mwu58rgRfh5--36">
          <mxGeometry x="1" relative="1" as="geometry">
            <mxPoint y="-10" as="offset" />
          </mxGeometry>
        </mxCell>
        <mxCell id="wJQzVaT3mwu58rgRfh5--38" value="" style="endArrow=none;html=1;rounded=0;dashed=1;dashPattern=1 2;fontSize=12;startSize=8;endSize=8;curved=1;exitX=0;exitY=0.5;exitDx=0;exitDy=0;entryX=1;entryY=0.5;entryDx=0;entryDy=0;" edge="1" parent="1" source="wJQzVaT3mwu58rgRfh5--35" target="wJQzVaT3mwu58rgRfh5--7">
          <mxGeometry relative="1" as="geometry">
            <mxPoint x="900" y="250" as="sourcePoint" />
            <mxPoint x="1060" y="250" as="targetPoint" />
          </mxGeometry>
        </mxCell>
        <mxCell id="wJQzVaT3mwu58rgRfh5--39" value="N" style="resizable=0;html=1;whiteSpace=wrap;align=right;verticalAlign=bottom;" connectable="0" vertex="1" parent="wJQzVaT3mwu58rgRfh5--38">
          <mxGeometry x="1" relative="1" as="geometry">
            <mxPoint x="20" y="20" as="offset" />
          </mxGeometry>
        </mxCell>
        <mxCell id="wJQzVaT3mwu58rgRfh5--40" value="聘用合同号" style="ellipse;whiteSpace=wrap;html=1;align=center;fontStyle=4;" vertex="1" parent="1">
          <mxGeometry x="890" y="210" width="90" height="40" as="geometry" />
        </mxCell>
        <mxCell id="wJQzVaT3mwu58rgRfh5--46" value="" style="endArrow=none;html=1;rounded=0;dashed=1;dashPattern=1 2;fontSize=12;startSize=8;endSize=8;curved=1;exitX=1;exitY=0.5;exitDx=0;exitDy=0;entryX=0;entryY=0.5;entryDx=0;entryDy=0;" edge="1" parent="1" source="wJQzVaT3mwu58rgRfh5--35" target="wJQzVaT3mwu58rgRfh5--25">
          <mxGeometry relative="1" as="geometry">
            <mxPoint x="1000" y="180" as="sourcePoint" />
            <mxPoint x="1160" y="180" as="targetPoint" />
          </mxGeometry>
        </mxCell>
        <mxCell id="wJQzVaT3mwu58rgRfh5--47" value="1" style="resizable=0;html=1;whiteSpace=wrap;align=right;verticalAlign=bottom;" connectable="0" vertex="1" parent="wJQzVaT3mwu58rgRfh5--46">
          <mxGeometry x="1" relative="1" as="geometry">
            <mxPoint x="-20" as="offset" />
          </mxGeometry>
        </mxCell>
        <mxCell id="wJQzVaT3mwu58rgRfh5--56" value="" style="group" vertex="1" connectable="0" parent="1">
          <mxGeometry x="1120" y="225" width="150" height="45" as="geometry" />
        </mxCell>
        <mxCell id="wJQzVaT3mwu58rgRfh5--48" value="" style="triangle;whiteSpace=wrap;html=1;rotation=-90;movable=1;resizable=1;rotatable=1;deletable=1;editable=1;locked=0;connectable=1;" vertex="1" parent="wJQzVaT3mwu58rgRfh5--56">
          <mxGeometry x="17.5" y="-17.5" width="45" height="80" as="geometry" />
        </mxCell>
        <mxCell id="wJQzVaT3mwu58rgRfh5--53" value="聘用类型" style="text;html=1;align=center;verticalAlign=middle;whiteSpace=wrap;rounded=0;fontSize=16;movable=1;resizable=1;rotatable=1;deletable=1;editable=1;locked=0;connectable=1;" vertex="1" parent="wJQzVaT3mwu58rgRfh5--56">
          <mxGeometry x="70" width="80" height="30" as="geometry" />
        </mxCell>
        <mxCell id="wJQzVaT3mwu58rgRfh5--64" value="" style="endArrow=none;rounded=0;orthogonalLoop=1;jettySize=auto;html=1;fontSize=12;startSize=8;endSize=8;entryX=0;entryY=0.25;entryDx=0;entryDy=0;" edge="1" parent="1" source="wJQzVaT3mwu58rgRfh5--63" target="wJQzVaT3mwu58rgRfh5--48">
          <mxGeometry relative="1" as="geometry" />
        </mxCell>
        <mxCell id="wJQzVaT3mwu58rgRfh5--63" value="飞行员" style="whiteSpace=wrap;html=1;align=center;" vertex="1" parent="1">
          <mxGeometry x="1080" y="300" width="70" height="40" as="geometry" />
        </mxCell>
        <mxCell id="wJQzVaT3mwu58rgRfh5--65" value="" style="endArrow=none;html=1;rounded=0;fontSize=12;startSize=8;endSize=8;curved=1;exitX=0.5;exitY=1;exitDx=0;exitDy=0;entryX=0.5;entryY=0;entryDx=0;entryDy=0;" edge="1" parent="1" source="wJQzVaT3mwu58rgRfh5--2" target="wJQzVaT3mwu58rgRfh5--1">
          <mxGeometry relative="1" as="geometry">
            <mxPoint x="310" y="120" as="sourcePoint" />
            <mxPoint x="470" y="120" as="targetPoint" />
          </mxGeometry>
        </mxCell>
        <mxCell id="wJQzVaT3mwu58rgRfh5--66" value="" style="endArrow=none;html=1;rounded=0;fontSize=12;startSize=8;endSize=8;curved=1;exitX=0.5;exitY=1;exitDx=0;exitDy=0;entryX=0.5;entryY=0;entryDx=0;entryDy=0;" edge="1" parent="1" source="wJQzVaT3mwu58rgRfh5--1" target="wJQzVaT3mwu58rgRfh5--4">
          <mxGeometry relative="1" as="geometry">
            <mxPoint x="340" y="230" as="sourcePoint" />
            <mxPoint x="500" y="230" as="targetPoint" />
          </mxGeometry>
        </mxCell>
        <mxCell id="wJQzVaT3mwu58rgRfh5--67" value="" style="endArrow=none;html=1;rounded=0;fontSize=12;startSize=8;endSize=8;curved=1;exitX=0.5;exitY=1;exitDx=0;exitDy=0;entryX=0.5;entryY=0;entryDx=0;entryDy=0;" edge="1" parent="1" source="wJQzVaT3mwu58rgRfh5--9" target="wJQzVaT3mwu58rgRfh5--6">
          <mxGeometry relative="1" as="geometry">
            <mxPoint x="550" y="80" as="sourcePoint" />
            <mxPoint x="550" y="130" as="targetPoint" />
          </mxGeometry>
        </mxCell>
        <mxCell id="wJQzVaT3mwu58rgRfh5--68" value="" style="endArrow=none;html=1;rounded=0;fontSize=12;startSize=8;endSize=8;curved=1;exitX=0.25;exitY=1;exitDx=0;exitDy=0;entryX=0.604;entryY=-0.041;entryDx=0;entryDy=0;entryPerimeter=0;" edge="1" parent="1" source="wJQzVaT3mwu58rgRfh5--6" target="wJQzVaT3mwu58rgRfh5--12">
          <mxGeometry relative="1" as="geometry">
            <mxPoint x="550" y="180" as="sourcePoint" />
            <mxPoint x="550" y="230" as="targetPoint" />
          </mxGeometry>
        </mxCell>
        <mxCell id="wJQzVaT3mwu58rgRfh5--69" value="" style="endArrow=none;html=1;rounded=0;fontSize=12;startSize=8;endSize=8;curved=1;exitX=0.5;exitY=1;exitDx=0;exitDy=0;entryX=0.5;entryY=0;entryDx=0;entryDy=0;" edge="1" parent="1" source="wJQzVaT3mwu58rgRfh5--6" target="wJQzVaT3mwu58rgRfh5--14">
          <mxGeometry relative="1" as="geometry">
            <mxPoint x="555" y="180" as="sourcePoint" />
            <mxPoint x="520" y="228" as="targetPoint" />
          </mxGeometry>
        </mxCell>
        <mxCell id="wJQzVaT3mwu58rgRfh5--70" value="" style="endArrow=none;html=1;rounded=0;fontSize=12;startSize=8;endSize=8;curved=1;exitX=0.294;exitY=-0.034;exitDx=0;exitDy=0;entryX=0.75;entryY=1;entryDx=0;entryDy=0;exitPerimeter=0;" edge="1" parent="1" source="wJQzVaT3mwu58rgRfh5--17" target="wJQzVaT3mwu58rgRfh5--6">
          <mxGeometry relative="1" as="geometry">
            <mxPoint x="565" y="190" as="sourcePoint" />
            <mxPoint x="530" y="238" as="targetPoint" />
          </mxGeometry>
        </mxCell>
        <mxCell id="wJQzVaT3mwu58rgRfh5--71" value="" style="endArrow=none;html=1;rounded=0;fontSize=12;startSize=8;endSize=8;curved=1;exitX=0.5;exitY=1;exitDx=0;exitDy=0;entryX=0.5;entryY=0;entryDx=0;entryDy=0;" edge="1" parent="1" source="wJQzVaT3mwu58rgRfh5--11" target="wJQzVaT3mwu58rgRfh5--7">
          <mxGeometry relative="1" as="geometry">
            <mxPoint x="940" y="60" as="sourcePoint" />
            <mxPoint x="940" y="110" as="targetPoint" />
          </mxGeometry>
        </mxCell>
        <mxCell id="wJQzVaT3mwu58rgRfh5--72" value="乘务人员" style="whiteSpace=wrap;html=1;align=center;" vertex="1" parent="1">
          <mxGeometry x="1180" y="300" width="80" height="40" as="geometry" />
        </mxCell>
        <mxCell id="wJQzVaT3mwu58rgRfh5--74" value="" style="endArrow=none;html=1;rounded=0;fontSize=12;startSize=8;endSize=8;curved=1;exitX=0.25;exitY=0;exitDx=0;exitDy=0;entryX=0;entryY=0.75;entryDx=0;entryDy=0;" edge="1" parent="1" source="wJQzVaT3mwu58rgRfh5--72" target="wJQzVaT3mwu58rgRfh5--48">
          <mxGeometry relative="1" as="geometry">
            <mxPoint x="1070" y="270" as="sourcePoint" />
            <mxPoint x="1230" y="270" as="targetPoint" />
          </mxGeometry>
        </mxCell>
        <mxCell id="wJQzVaT3mwu58rgRfh5--76" value="执照类型" style="ellipse;whiteSpace=wrap;html=1;align=center;" vertex="1" parent="1">
          <mxGeometry x="975" y="400" width="85" height="40" as="geometry" />
        </mxCell>
        <mxCell id="wJQzVaT3mwu58rgRfh5--77" value="总飞行小时" style="ellipse;whiteSpace=wrap;html=1;align=center;" vertex="1" parent="1">
          <mxGeometry x="1140" y="370" width="80" height="40" as="geometry" />
        </mxCell>
        <mxCell id="wJQzVaT3mwu58rgRfh5--86" value="" style="endArrow=none;html=1;rounded=0;fontSize=12;startSize=8;endSize=8;curved=1;exitX=0.25;exitY=1;exitDx=0;exitDy=0;entryX=0.5;entryY=0;entryDx=0;entryDy=0;" edge="1" parent="1" source="wJQzVaT3mwu58rgRfh5--63" target="wJQzVaT3mwu58rgRfh5--102">
          <mxGeometry relative="1" as="geometry">
            <mxPoint x="1079.9953390593275" y="359.9976695296637" as="sourcePoint" />
            <mxPoint x="1104.64" y="377.32" as="targetPoint" />
          </mxGeometry>
        </mxCell>
        <mxCell id="wJQzVaT3mwu58rgRfh5--87" value="" style="endArrow=none;html=1;rounded=0;fontSize=12;startSize=8;endSize=8;curved=1;exitX=0.5;exitY=0;exitDx=0;exitDy=0;entryX=0;entryY=1;entryDx=0;entryDy=0;" edge="1" parent="1" source="wJQzVaT3mwu58rgRfh5--76" target="wJQzVaT3mwu58rgRfh5--63">
          <mxGeometry relative="1" as="geometry">
            <mxPoint x="1000" y="490" as="sourcePoint" />
            <mxPoint x="1070" y="490" as="targetPoint" />
          </mxGeometry>
        </mxCell>
        <mxCell id="wJQzVaT3mwu58rgRfh5--88" style="edgeStyle=none;curved=1;rounded=0;orthogonalLoop=1;jettySize=auto;html=1;exitX=1;exitY=1;exitDx=0;exitDy=0;fontSize=12;startSize=8;endSize=8;" edge="1" parent="1">
          <mxGeometry relative="1" as="geometry">
            <mxPoint x="1110" y="415" as="sourcePoint" />
            <mxPoint x="1110" y="415" as="targetPoint" />
          </mxGeometry>
        </mxCell>
        <mxCell id="wJQzVaT3mwu58rgRfh5--89" value="" style="endArrow=none;html=1;rounded=0;fontSize=12;startSize=8;endSize=8;curved=1;exitX=0.75;exitY=1;exitDx=0;exitDy=0;entryX=0;entryY=0;entryDx=0;entryDy=0;" edge="1" parent="1" source="wJQzVaT3mwu58rgRfh5--63" target="wJQzVaT3mwu58rgRfh5--77">
          <mxGeometry relative="1" as="geometry">
            <mxPoint x="1050" y="430" as="sourcePoint" />
            <mxPoint x="1210" y="430" as="targetPoint" />
          </mxGeometry>
        </mxCell>
        <mxCell id="wJQzVaT3mwu58rgRfh5--91" value="航空服务员证书" style="shape=ext;margin=3;double=1;whiteSpace=wrap;html=1;align=center;" vertex="1" parent="1">
          <mxGeometry x="1280" y="450" width="100" height="40" as="geometry" />
        </mxCell>
        <mxCell id="wJQzVaT3mwu58rgRfh5--92" value="拥有" style="shape=rhombus;double=1;perimeter=rhombusPerimeter;whiteSpace=wrap;html=1;align=center;" vertex="1" parent="1">
          <mxGeometry x="1230" y="370" width="120" height="60" as="geometry" />
        </mxCell>
        <mxCell id="wJQzVaT3mwu58rgRfh5--93" value="" style="endArrow=none;html=1;rounded=0;fontSize=12;startSize=8;endSize=8;curved=1;exitX=0.5;exitY=1;exitDx=0;exitDy=0;entryX=0.5;entryY=0;entryDx=0;entryDy=0;" edge="1" parent="1" source="wJQzVaT3mwu58rgRfh5--92" target="wJQzVaT3mwu58rgRfh5--91">
          <mxGeometry relative="1" as="geometry">
            <mxPoint x="1370" y="490" as="sourcePoint" />
            <mxPoint x="1530" y="490" as="targetPoint" />
          </mxGeometry>
        </mxCell>
        <mxCell id="wJQzVaT3mwu58rgRfh5--94" value="1" style="resizable=0;html=1;whiteSpace=wrap;align=right;verticalAlign=bottom;direction=south;" connectable="0" vertex="1" parent="wJQzVaT3mwu58rgRfh5--93">
          <mxGeometry x="1" relative="1" as="geometry">
            <mxPoint as="offset" />
          </mxGeometry>
        </mxCell>
        <mxCell id="wJQzVaT3mwu58rgRfh5--95" value="" style="endArrow=none;html=1;rounded=0;fontSize=12;startSize=8;endSize=8;curved=1;entryX=0.5;entryY=0;entryDx=0;entryDy=0;" edge="1" parent="1" target="wJQzVaT3mwu58rgRfh5--92">
          <mxGeometry relative="1" as="geometry">
            <mxPoint x="1260" y="340" as="sourcePoint" />
            <mxPoint x="1530" y="490" as="targetPoint" />
          </mxGeometry>
        </mxCell>
        <mxCell id="wJQzVaT3mwu58rgRfh5--96" value="1" style="resizable=0;html=1;whiteSpace=wrap;align=right;verticalAlign=bottom;" connectable="0" vertex="1" parent="wJQzVaT3mwu58rgRfh5--95">
          <mxGeometry x="1" relative="1" as="geometry">
            <mxPoint x="-50" y="-10" as="offset" />
          </mxGeometry>
        </mxCell>
        <mxCell id="wJQzVaT3mwu58rgRfh5--97" value="航空服务员&lt;div&gt;证书编号&lt;br&gt;&lt;/div&gt;" style="ellipse;whiteSpace=wrap;html=1;align=center;fontStyle=4;" vertex="1" parent="1">
          <mxGeometry x="1410" y="420" width="100" height="50" as="geometry" />
        </mxCell>
        <mxCell id="wJQzVaT3mwu58rgRfh5--98" value="" style="endArrow=none;html=1;rounded=0;fontSize=12;startSize=8;endSize=8;curved=1;exitX=0;exitY=1;exitDx=0;exitDy=0;entryX=1;entryY=1;entryDx=0;entryDy=0;" edge="1" parent="1" source="wJQzVaT3mwu58rgRfh5--97" target="wJQzVaT3mwu58rgRfh5--91">
          <mxGeometry relative="1" as="geometry">
            <mxPoint x="1260" y="470" as="sourcePoint" />
            <mxPoint x="1420" y="470" as="targetPoint" />
          </mxGeometry>
        </mxCell>
        <mxCell id="wJQzVaT3mwu58rgRfh5--100" style="edgeStyle=none;curved=1;rounded=0;orthogonalLoop=1;jettySize=auto;html=1;exitX=1;exitY=1;exitDx=0;exitDy=0;fontSize=12;startSize=8;endSize=8;" edge="1" parent="1" source="wJQzVaT3mwu58rgRfh5--92" target="wJQzVaT3mwu58rgRfh5--92">
          <mxGeometry relative="1" as="geometry" />
        </mxCell>
        <mxCell id="wJQzVaT3mwu58rgRfh5--102" value="飞机驾驶&lt;div&gt;执照编号&lt;/div&gt;" style="ellipse;whiteSpace=wrap;html=1;align=center;" vertex="1" parent="1">
          <mxGeometry x="1050" y="430" width="100" height="40" as="geometry" />
        </mxCell>
      </root>
    </mxGraphModel>
  </diagram>
</mxfile>
